<svg width="267.47" height="102.71" data-background-color="#282634" version="1.1" viewBox="0 0 267.47 102.71" xmlns="http://www.w3.org/2000/svg">
 <g stroke="transparent" stroke-width="0">
  <rect width="267.47" height="102.71" rx="2%" fill="#ff4057" data-fill-palette-color="tertiary" data-stroke-palette-color=""/>
  <rect x="6.5666" y="6.5666" width="254.33" height="89.574" rx="1%" fill="#282634" data-fill-palette-color="quaternary" data-stroke-palette-color=""/>
 </g>
 <g transform="matrix(1.4858,0,0,1.4439,19.48,75.79)">
  <g transform="matrix(.99178 0 0 1.0257 -1.187 1.3288)">
   <path class="undefined-text-0" d="m10.65 0h-7.15v-35h7.15v14.55h6.65q1.7 0 3.1-0.68 1.4-0.67 2.23-1.97 0.82-1.3 0.82-3.1v-8.8h7.15v8.8q0 3.5-1.65 6.17-1.65 2.68-4.35 4.23l4.2 8.85q0.15 0.35 0.48 0.5 0.32 0.15 0.72 0.15h3.4v6.3h-4.5q-2.5 0-4.1-1.03-1.6-1.02-2.45-2.77l-4.95-10.35q-0.5 0-0.95 0t-0.95 0h-4.85zm30.5 0h-7.5l11.4-31.1q0.85-2.25 2.67-3.38 1.83-1.12 4.13-1.12t4.15 1.08q1.85 1.07 2.65 3.37l11.45 31.15h-7.85l-2.35-7.05h-16.3zm9.95-28.7-5.35 15.35h12.05l-5.05-15.35q-0.1-0.35-0.33-0.5-0.22-0.15-0.52-0.15t-0.5 0.17q-0.2 0.18-0.3 0.48zm41.34 28.7h-19.75v-6.3h6.31v-22.4h-6.31v-6.3h19.75v6.3h-6.3v22.4h6.3zm12.65 0h-7.15v-24.8q0-2.85 1.38-5.15 1.37-2.3 3.7-3.68 2.32-1.37 5.12-1.37h12.65v6.3h-11.85q-1.6 0-2.72 1.15-1.13 1.15-1.13 2.75v5.65h14v6.3h-14zm21.95 0h-7.5l11.4-31.1q0.85-2.25 2.68-3.38 1.82-1.12 4.12-1.12t4.15 1.08q1.85 1.07 2.65 3.37l11.45 31.15h-7.85l-2.35-7.05h-16.3zm9.95-28.7-5.35 15.35h12.05l-5.05-15.35q-0.1-0.35-0.33-0.5-0.22-0.15-0.52-0.15t-0.5 0.17q-0.2 0.18-0.3 0.48z" fill="#ff4057" data-fill-palette-color="primary" data-stroke-palette-color=""/>
  </g>
 </g>
</svg>
